<?xml version="1.0" standalone="no"?>
<!DOCTYPE svg PUBLIC "-//W3C//DTD SVG 20010904//EN"
 "http://www.w3.org/TR/2001/REC-SVG-20010904/DTD/svg10.dtd">
<svg version="1.0" xmlns="http://www.w3.org/2000/svg"
 width="225.000000pt" height="225.000000pt" viewBox="0 0 225.000000 225.000000"
 preserveAspectRatio="xMidYMid meet">
<metadata>
Created by potrace 1.15, written by Peter Selinger 2001-2017
</metadata>
<g transform="translate(0.000000,225.000000) scale(0.100000,-0.100000)"
fill="#000000" stroke="none">
<path d="M993 2058 c-4 -7 -15 -30 -23 -52 -13 -34 -22 -41 -78 -61 -113 -41
-157 -79 -186 -163 -14 -39 -14 -42 3 -42 10 0 24 7 31 15 19 23 65 18 98 -10
16 -13 32 -22 36 -20 3 3 4 2 1 -2 -9 -11 -44 -10 -42 1 2 13 -115 8 -153 -6
-29 -11 -60 -37 -60 -50 0 -5 7 -2 16 7 29 29 26 8 -9 -73 -20 -43 -38 -100
-42 -126 -4 -25 -11 -46 -15 -46 -13 0 -2 81 20 145 11 32 18 60 16 63 -6 5
-56 -154 -56 -179 0 -16 -3 -18 -19 -9 -11 5 -23 10 -28 10 -4 -1 4 -8 20 -16
44 -24 31 -37 -14 -14 -23 12 -43 20 -45 17 -2 -2 19 -14 46 -27 28 -13 50
-29 50 -36 0 -7 6 -19 12 -26 44 -48 61 -70 48 -62 -15 8 -13 5 43 -81 31 -47
104 -102 201 -150 48 -25 93 -45 100 -45 12 0 132 -119 178 -177 l26 -32 43
60 c24 34 49 68 55 76 6 10 32 17 70 20 32 2 74 8 93 13 27 7 47 4 107 -20 88
-35 242 -112 295 -147 21 -14 44 -23 51 -21 20 7 -116 83 -258 144 -128 55
-160 72 -116 61 14 -3 25 0 30 10 8 13 16 13 68 -2 103 -28 176 -56 278 -107
93 -46 134 -56 90 -23 -32 24 -214 101 -294 124 -41 12 -81 24 -89 27 -18 6
38 49 91 71 45 18 68 51 68 97 0 20 8 55 18 78 13 32 17 71 17 153 0 106 -1
112 -36 180 -22 44 -36 86 -37 113 -2 54 -33 127 -60 141 -27 14 -70 13 -107
-3 -28 -11 -35 -10 -87 21 -69 41 -163 77 -240 92 -31 7 -62 19 -69 27 -7 9
-32 29 -55 45 -45 30 -87 38 -101 17z m-128 -378 c198 -52 433 -197 480 -296
21 -46 15 -69 -42 -158 -81 -128 -120 -157 -212 -159 -44 -2 -55 -5 -53 -17 2
-8 0 -11 -4 -7 -13 13 -13 38 -1 31 7 -3 5 1 -3 8 -8 8 -21 20 -28 28 -11 13
-12 10 -3 -12 6 -16 7 -28 1 -28 -18 0 -156 67 -210 102 -30 20 -70 52 -88 71
l-34 35 24 25 c13 14 35 39 49 56 16 19 36 31 51 31 23 0 175 -91 211 -126 22
-22 22 -6 0 26 -21 30 -37 43 -83 67 -19 10 -52 30 -74 45 -21 15 -42 25 -47
22 -5 -3 -9 0 -9 5 0 6 -4 11 -10 11 -5 0 -7 -8 -4 -17 5 -17 5 -17 -9 0 -8 9
-29 18 -48 18 -19 1 -26 3 -17 6 27 7 50 104 28 118 -6 4 -10 -6 -10 -22 0
-15 -5 -35 -10 -43 -9 -13 -11 -13 -20 0 -7 11 -10 3 -10 -30 0 -34 -7 -53
-29 -79 l-29 -35 -7 32 c-12 56 12 161 59 263 l26 57 48 -5 c26 -3 79 -13 117
-23z"/>
<path d="M341 1409 c-22 -9 -23 -11 -7 -28 15 -17 15 -19 -3 -35 -11 -10 -41
-23 -68 -30 -59 -15 -64 -40 -14 -73 49 -33 168 -33 226 0 50 28 71 67 54 99
-8 14 -14 18 -16 11 -6 -17 -49 5 -82 41 -26 27 -50 31 -90 15z"/>
<path d="M571 1201 c-6 -21 -22 -48 -35 -60 l-25 -23 25 -22 c13 -11 27 -32
29 -46 11 -62 17 -80 25 -80 22 0 59 193 47 242 -4 15 -14 23 -30 24 -20 1
-27 -5 -36 -35z"/>
<path d="M980 552 c0 -13 -4 -20 -10 -17 -6 3 -13 -2 -16 -12 -21 -65 -42 -97
-81 -124 -54 -38 -56 -61 -6 -88 34 -18 102 -13 177 14 37 13 69 25 71 27 2 2
11 21 20 43 23 54 29 105 13 105 -7 0 -48 17 -90 38 -78 38 -78 38 -78 14z"/>
<path d="M1372 473 c8 -10 29 -44 47 -75 29 -51 38 -59 89 -78 79 -30 160 -37
199 -16 62 32 51 86 -20 104 -24 6 -55 21 -69 32 -16 12 -41 20 -65 20 -21 0
-69 7 -108 15 -88 19 -91 19 -73 -2z"/>
</g>
</svg>
